<?xml version="1.0" encoding="UTF-8"?>
<svg xmlns="http://www.w3.org/2000/svg" xmlns:xlink="http://www.w3.org/1999/xlink" width="1230pt" height="693.000001pt" viewBox="0 0 1230 693.000001" version="1.2">
<defs>
<clipPath id="clip1">
  <path d="M 2 478 L 935 478 L 935 672.570312 L 2 672.570312 Z M 2 478 "/>
</clipPath>
<clipPath id="clip2">
  <path d="M 2 12.023438 L 941 12.023438 L 941 206 L 2 206 Z M 2 12.023438 "/>
</clipPath>
</defs>
<g id="surface1">
<path style=" stroke:none;fill-rule:nonzero;fill:rgb(0%,29.019165%,67.83905%);fill-opacity:1;" d="M 1173.234375 489.53125 C 1167.8125 489.53125 1163.410156 485.140625 1163.402344 479.726562 C 1163.386719 474.300781 1167.789062 469.894531 1173.21875 469.886719 C 1173.226562 469.886719 1173.226562 469.886719 1173.234375 469.886719 C 1178.089844 469.886719 1182.109375 473.421875 1182.898438 478.058594 L 1227.285156 477.984375 L 1227.285156 481.257812 L 1182.90625 481.328125 C 1182.132812 485.972656 1178.125 489.523438 1173.25 489.53125 C 1173.242188 489.53125 1173.234375 489.53125 1173.234375 489.53125 "/>
<path style=" stroke:none;fill-rule:nonzero;fill:rgb(0%,29.019165%,67.83905%);fill-opacity:1;" d="M 1042.191406 522.074219 C 1036.761719 522.074219 1032.351562 517.6875 1032.34375 512.261719 C 1032.335938 506.835938 1036.734375 502.433594 1042.160156 502.421875 C 1042.167969 502.421875 1042.175781 502.421875 1042.183594 502.421875 C 1047.046875 502.421875 1051.058594 505.957031 1051.847656 510.59375 L 1105.410156 510.515625 L 1156.140625 459.683594 L 1227.285156 459.570312 L 1227.285156 462.84375 L 1157.496094 462.953125 L 1106.78125 513.785156 L 1051.847656 513.871094 C 1051.074219 518.507812 1047.0625 522.066406 1042.199219 522.074219 C 1042.191406 522.074219 1042.191406 522.074219 1042.191406 522.074219 "/>
<path style=" stroke:none;fill-rule:nonzero;fill:rgb(0%,29.019165%,67.83905%);fill-opacity:1;" d="M 1071.445312 579.785156 C 1066.015625 579.785156 1061.625 575.394531 1061.617188 569.976562 C 1061.605469 564.550781 1066 560.148438 1071.429688 560.148438 C 1071.445312 560.148438 1071.457031 560.148438 1071.464844 560.148438 C 1075.722656 560.148438 1079.316406 562.878906 1080.671875 566.675781 L 1133.039062 566.59375 L 1183.761719 515.773438 L 1227.285156 515.699219 L 1227.285156 518.972656 L 1185.132812 519.042969 L 1134.402344 569.867188 L 1081.277344 569.953125 C 1081.289062 575.378906 1076.894531 579.777344 1071.464844 579.785156 C 1071.457031 579.785156 1071.457031 579.785156 1071.445312 579.785156 "/>
<path style=" stroke:none;fill-rule:nonzero;fill:rgb(0%,29.019165%,67.83905%);fill-opacity:1;" d="M 984.617188 582.375 C 979.195312 582.375 974.785156 577.988281 974.777344 572.5625 C 974.769531 567.144531 979.171875 562.734375 984.601562 562.726562 C 984.609375 562.726562 984.617188 562.726562 984.625 562.726562 C 986.308594 562.726562 987.871094 563.195312 989.25 563.945312 L 1005.199219 547.964844 L 1123.199219 547.773438 L 1173.921875 496.949219 L 1227.285156 496.871094 L 1227.285156 500.140625 L 1175.285156 500.230469 L 1124.570312 551.054688 L 1006.570312 551.238281 L 991.859375 565.964844 C 993.445312 567.703125 994.441406 569.992188 994.449219 572.539062 C 994.457031 577.964844 990.0625 582.367188 984.632812 582.375 C 984.625 582.375 984.625 582.375 984.617188 582.375 "/>
<path style=" stroke:none;fill-rule:nonzero;fill:rgb(0%,29.019165%,67.83905%);fill-opacity:1;" d="M 781.058594 292.691406 C 775.628906 292.691406 771.226562 288.304688 771.226562 282.886719 C 771.21875 277.460938 775.609375 273.054688 781.042969 273.046875 C 781.042969 273.046875 781.050781 273.046875 781.058594 273.046875 C 785.914062 273.046875 789.925781 276.582031 790.722656 281.21875 L 914.757812 281.019531 L 1022.75 172.804688 L 1227.292969 172.957031 L 1227.292969 176.238281 L 1024.113281 176.085938 L 916.121094 284.296875 L 790.722656 284.488281 C 789.949219 289.132812 785.9375 292.683594 781.074219 292.691406 C 781.066406 292.691406 781.066406 292.691406 781.058594 292.691406 "/>
<path style=" stroke:none;fill-rule:nonzero;fill:rgb(0%,29.019165%,67.83905%);fill-opacity:1;" d="M 650.003906 325.234375 C 644.582031 325.234375 640.171875 320.847656 640.164062 315.421875 C 640.15625 309.996094 644.558594 305.59375 649.988281 305.585938 C 649.988281 305.585938 649.996094 305.585938 649.996094 305.585938 C 654.859375 305.585938 658.871094 309.128906 659.667969 313.753906 L 713.230469 313.675781 L 763.960938 262.84375 L 906.535156 262.621094 L 1014.527344 154.414062 L 1227.292969 154.558594 L 1227.292969 157.832031 L 1015.890625 157.6875 L 907.898438 265.890625 L 765.324219 266.117188 L 714.59375 316.945312 L 659.667969 317.035156 C 658.894531 321.667969 654.882812 325.226562 650.011719 325.234375 C 650.011719 325.234375 650.003906 325.234375 650.003906 325.234375 "/>
<path style=" stroke:none;fill-rule:nonzero;fill:rgb(0%,29.019165%,67.83905%);fill-opacity:1;" d="M 941.828125 351.015625 C 936.40625 351.015625 932.003906 346.632812 931.996094 341.210938 C 931.988281 335.792969 936.382812 331.378906 941.8125 331.371094 C 941.820312 331.371094 941.828125 331.371094 941.828125 331.371094 C 943.949219 331.371094 945.894531 332.058594 947.507812 333.191406 L 1050.777344 229.710938 L 1227.292969 229.851562 L 1227.292969 233.125 L 1052.140625 232.980469 L 949.820312 335.503906 C 950.96875 337.109375 951.660156 339.054688 951.667969 341.175781 C 951.667969 346.601562 947.277344 351.007812 941.84375 351.015625 C 941.84375 351.015625 941.835938 351.015625 941.828125 351.015625 "/>
<path style=" stroke:none;fill-rule:nonzero;fill:rgb(0%,29.019165%,67.83905%);fill-opacity:1;" d="M 679.261719 382.945312 C 673.839844 382.945312 669.445312 378.558594 669.4375 373.140625 C 669.429688 367.714844 673.824219 363.308594 679.253906 363.300781 C 679.261719 363.300781 679.269531 363.300781 679.277344 363.300781 C 683.542969 363.300781 687.132812 366.039062 688.496094 369.835938 L 740.859375 369.757812 L 791.582031 318.933594 L 934.167969 318.710938 L 1042.160156 210.496094 L 1227.292969 210.640625 L 1227.292969 213.910156 L 1043.523438 213.769531 L 935.523438 321.980469 L 792.945312 322.203125 L 742.222656 373.027344 L 689.101562 373.117188 C 689.109375 378.539062 684.714844 382.9375 679.285156 382.945312 C 679.277344 382.945312 679.269531 382.945312 679.261719 382.945312 "/>
<path style=" stroke:none;fill-rule:nonzero;fill:rgb(0%,29.019165%,67.83905%);fill-opacity:1;" d="M 592.441406 385.539062 C 587.007812 385.539062 582.609375 381.148438 582.601562 375.722656 C 582.59375 370.308594 586.984375 365.902344 592.414062 365.886719 C 594.113281 365.886719 595.683594 366.351562 597.074219 367.109375 L 613.027344 351.125 L 731.019531 350.933594 L 781.742188 300.113281 L 924.328125 299.886719 L 1032.320312 191.683594 L 1227.292969 191.835938 L 1227.292969 195.105469 L 1033.683594 194.945312 L 925.683594 303.160156 L 783.105469 303.390625 L 732.382812 354.214844 L 614.390625 354.390625 L 599.679688 369.125 C 601.273438 370.867188 602.265625 373.15625 602.273438 375.699219 C 602.28125 381.125 597.886719 385.53125 592.449219 385.539062 C 592.449219 385.539062 592.441406 385.539062 592.441406 385.539062 "/>
<path style=" stroke:none;fill-rule:nonzero;fill:rgb(0%,29.019165%,67.83905%);fill-opacity:1;" d="M 1128.160156 412.378906 L 1079.070312 363.191406 L 864.019531 362.855469 L 823.28125 396.652344 C 823.765625 397.816406 824.039062 399.09375 824.03125 400.433594 C 824.019531 405.859375 819.628906 410.246094 814.199219 410.246094 C 814.1875 410.246094 814.1875 410.246094 814.179688 410.246094 C 808.75 410.238281 804.355469 405.835938 804.367188 400.410156 C 804.375 394.984375 808.78125 390.597656 814.207031 390.597656 C 814.207031 390.597656 814.214844 390.597656 814.214844 390.597656 C 817.117188 390.605469 819.691406 391.882812 821.484375 393.875 L 862.832031 359.574219 L 1080.433594 359.910156 L 1129.523438 409.097656 L 1227.292969 409.042969 L 1227.292969 412.320312 L 1128.160156 412.378906 "/>
<path style=" stroke:none;fill-rule:nonzero;fill:rgb(0%,29.019165%,67.83905%);fill-opacity:1;" d="M 1062.953125 444.261719 L 1027.039062 408.5 C 1025.4375 409.640625 1023.484375 410.328125 1021.363281 410.335938 C 1021.355469 410.335938 1021.347656 410.335938 1021.339844 410.335938 C 1015.917969 410.335938 1011.523438 405.945312 1011.515625 400.53125 C 1011.507812 395.105469 1015.898438 390.699219 1021.332031 390.683594 C 1021.332031 390.683594 1021.339844 390.683594 1021.339844 390.683594 C 1026.769531 390.683594 1031.171875 395.082031 1031.179688 400.496094 C 1031.179688 402.621094 1030.5 404.574219 1029.359375 406.179688 L 1063.320312 440 L 1227.292969 440.109375 L 1227.292969 443.605469 L 1062.953125 444.261719 "/>
<path style=" stroke:none;fill-rule:nonzero;fill:rgb(0%,29.019165%,67.83905%);fill-opacity:1;" d="M 1087.660156 428 C 1087.652344 428 1087.652344 428 1087.640625 428 C 1082.210938 427.992188 1077.820312 423.597656 1077.828125 418.171875 C 1077.835938 415.832031 1078.679688 413.710938 1080.050781 412.027344 L 1049.390625 381.316406 L 885.046875 381.0625 L 865.328125 397.417969 C 866.09375 398.566406 866.660156 399.851562 866.898438 401.273438 L 866.890625 404.542969 C 866.109375 409.179688 862.089844 412.714844 857.226562 412.714844 C 857.226562 412.714844 857.21875 412.714844 857.210938 412.714844 C 854.523438 412.714844 852.089844 411.621094 850.320312 409.871094 L 849.441406 408.828125 C 848.175781 407.167969 847.386719 405.125 847.394531 402.875 C 847.402344 397.457031 851.804688 393.070312 857.226562 393.070312 C 857.234375 393.070312 857.234375 393.070312 857.242188 393.070312 C 859.441406 393.070312 861.433594 393.828125 863.0625 395.039062 L 883.867188 377.78125 L 1050.753906 378.046875 L 1082.507812 409.847656 C 1084.007812 408.921875 1085.761719 408.355469 1087.652344 408.355469 C 1087.660156 408.355469 1087.667969 408.355469 1087.675781 408.355469 C 1093.105469 408.363281 1097.5 412.777344 1097.492188 418.195312 C 1097.480469 423.621094 1093.082031 428 1087.660156 428 "/>
<path style=" stroke:none;fill-rule:nonzero;fill:rgb(79.60968%,42.349243%,90.19928%);fill-opacity:1;" d="M 2.695312 270.25 L 2.707031 270.25 L 2.707031 266.976562 L 2.695312 266.976562 Z M 2.695312 270.25 "/>
<path style=" stroke:none;fill-rule:nonzero;fill:rgb(0%,29.019165%,67.83905%);fill-opacity:1;" d="M 187.3125 278.148438 C 182.457031 278.148438 178.4375 274.613281 177.65625 269.976562 L 2.707031 270.25 L 2.707031 266.976562 L 177.648438 266.699219 C 178.421875 262.054688 182.433594 258.511719 187.304688 258.503906 C 187.304688 258.503906 187.3125 258.503906 187.320312 258.503906 C 192.734375 258.503906 197.144531 262.890625 197.152344 268.308594 C 197.160156 273.734375 192.757812 278.140625 187.328125 278.148438 C 187.328125 278.148438 187.320312 278.148438 187.3125 278.148438 "/>
<path style=" stroke:none;fill-rule:nonzero;fill:rgb(79.60968%,42.349243%,90.19928%);fill-opacity:1;" d="M 2.695312 230.53125 L 2.695312 227.257812 L 2.707031 230.53125 "/>
<path style=" stroke:none;fill-rule:nonzero;fill:rgb(0%,29.019165%,67.83905%);fill-opacity:1;" d="M 500.003906 230.898438 L 2.695312 230.53125 L 2.707031 227.257812 L 498.640625 227.625 L 606.640625 119.414062 L 732.03125 119.222656 C 732.804688 114.578125 736.816406 111.027344 741.679688 111.019531 C 741.691406 111.019531 741.699219 111.019531 741.699219 111.019531 C 747.128906 111.019531 751.53125 115.410156 751.539062 120.824219 C 751.546875 126.25 747.152344 130.648438 741.722656 130.664062 C 741.714844 130.664062 741.707031 130.664062 741.707031 130.664062 C 736.839844 130.664062 732.832031 127.128906 732.039062 122.492188 L 607.996094 122.683594 L 500.003906 230.898438 "/>
<path style=" stroke:none;fill-rule:nonzero;fill:rgb(79.60968%,42.349243%,90.19928%);fill-opacity:1;" d="M 2.695312 248.945312 L 2.695312 245.667969 L 2.707031 248.945312 "/>
<path style=" stroke:none;fill-rule:nonzero;fill:rgb(0%,29.019165%,67.83905%);fill-opacity:1;" d="M 508.226562 249.296875 L 2.695312 248.945312 L 2.707031 245.667969 L 506.863281 246.023438 L 614.863281 137.820312 L 757.4375 137.597656 L 808.160156 86.765625 L 863.085938 86.679688 C 863.859375 82.042969 867.871094 78.484375 872.742188 78.476562 C 872.75 78.476562 872.75 78.476562 872.757812 78.476562 C 878.179688 78.476562 882.582031 82.863281 882.589844 88.289062 C 882.597656 93.707031 878.203125 98.117188 872.773438 98.128906 C 872.765625 98.128906 872.765625 98.128906 872.765625 98.128906 C 867.894531 98.128906 863.882812 94.59375 863.085938 89.949219 L 809.523438 90.035156 L 758.792969 140.859375 L 616.21875 141.082031 L 508.226562 249.296875 "/>
<path style=" stroke:none;fill-rule:nonzero;fill:rgb(79.60968%,42.349243%,90.19928%);fill-opacity:1;" d="M 2.695312 173.621094 L 2.695312 170.347656 L 2.707031 173.621094 "/>
<path style=" stroke:none;fill-rule:nonzero;fill:rgb(0%,29.019165%,67.83905%);fill-opacity:1;" d="M 471.984375 174.003906 L 2.695312 173.621094 L 2.707031 170.347656 L 470.621094 170.722656 L 572.933594 68.207031 C 571.789062 66.605469 571.09375 64.648438 571.09375 62.535156 C 571.085938 57.109375 575.480469 52.707031 580.910156 52.6875 C 580.917969 52.6875 580.925781 52.6875 580.925781 52.6875 C 586.347656 52.6875 590.75 57.078125 590.757812 62.503906 C 590.765625 67.921875 586.371094 72.324219 580.941406 72.339844 C 580.941406 72.339844 580.933594 72.339844 580.925781 72.339844 C 578.8125 72.339844 576.859375 71.652344 575.253906 70.511719 L 471.984375 174.003906 "/>
<path style=" stroke:none;fill-rule:nonzero;fill:rgb(79.60968%,42.349243%,90.19928%);fill-opacity:1;" d="M 2.695312 192.839844 L 2.695312 189.570312 L 2.707031 192.839844 "/>
<path style=" stroke:none;fill-rule:nonzero;fill:rgb(0%,29.019165%,67.83905%);fill-opacity:1;" d="M 480.605469 193.214844 L 2.695312 192.839844 L 2.707031 189.570312 L 479.234375 189.945312 L 587.234375 81.730469 L 729.808594 81.507812 L 780.539062 30.683594 L 833.652344 30.597656 C 833.644531 25.171875 838.039062 20.765625 843.46875 20.757812 C 843.476562 20.757812 843.484375 20.757812 843.484375 20.757812 C 848.910156 20.757812 853.316406 25.148438 853.316406 30.574219 C 853.332031 36 848.933594 40.394531 843.5 40.402344 C 843.492188 40.402344 843.484375 40.402344 843.46875 40.402344 C 839.210938 40.402344 835.625 37.664062 834.269531 33.875 L 781.894531 33.957031 L 731.171875 84.777344 L 588.589844 85.003906 L 480.605469 193.214844 "/>
<path style=" stroke:none;fill-rule:nonzero;fill:rgb(79.60968%,42.349243%,90.19928%);fill-opacity:1;" d="M 2.695312 211.652344 L 2.695312 208.375 L 2.707031 211.652344 "/>
<path style=" stroke:none;fill-rule:nonzero;fill:rgb(0%,29.019165%,67.83905%);fill-opacity:1;" d="M 490.445312 212.027344 L 2.695312 211.652344 L 2.707031 208.375 L 489.074219 208.757812 L 597.074219 100.542969 L 739.648438 100.320312 L 790.371094 49.496094 L 908.371094 49.3125 L 923.074219 34.585938 C 921.488281 32.839844 920.492188 30.546875 920.492188 28.011719 C 920.484375 22.585938 924.875 18.183594 930.308594 18.175781 C 930.308594 18.175781 930.316406 18.175781 930.316406 18.175781 C 935.738281 18.175781 940.148438 22.5625 940.15625 27.980469 C 940.164062 33.40625 935.769531 37.808594 930.332031 37.824219 C 928.640625 37.824219 927.070312 37.355469 925.683594 36.605469 L 909.734375 52.585938 L 791.742188 52.769531 L 741.011719 103.59375 L 598.4375 103.824219 L 490.445312 212.027344 "/>
<path style=" stroke:none;fill-rule:nonzero;fill:rgb(79.60968%,42.349243%,90.19928%);fill-opacity:1;" d="M 2.695312 465.285156 L 2.695312 462.011719 L 2.707031 465.285156 L 2.695312 465.285156 "/>
<path style=" stroke:none;fill-rule:nonzero;fill:rgb(0%,29.019165%,67.83905%);fill-opacity:1;" d="M 985.832031 635.9375 C 985.832031 635.9375 985.820312 635.9375 985.820312 635.9375 C 980.949219 635.929688 976.9375 632.386719 976.164062 627.742188 L 795.050781 627.457031 L 741.050781 573.351562 L 598.476562 573.121094 L 490.484375 464.917969 L 2.695312 465.285156 L 2.707031 462.011719 L 491.839844 461.644531 L 599.839844 569.851562 L 742.414062 570.074219 L 796.414062 624.183594 L 976.164062 624.464844 C 976.964844 619.828125 980.972656 616.292969 985.832031 616.292969 C 985.839844 616.292969 985.847656 616.292969 985.847656 616.292969 C 991.277344 616.300781 995.679688 620.707031 995.671875 626.132812 C 995.664062 631.546875 991.261719 635.9375 985.832031 635.9375 "/>
<path style=" stroke:none;fill-rule:nonzero;fill:rgb(79.60968%,42.349243%,90.19928%);fill-opacity:1;" d="M 2.695312 448.917969 L 2.695312 445.640625 L 2.707031 448.917969 L 2.695312 448.917969 "/>
<path style=" stroke:none;fill-rule:nonzero;fill:rgb(0%,29.019165%,67.83905%);fill-opacity:1;" d="M 740.925781 565.160156 C 740.925781 565.160156 740.917969 565.160156 740.90625 565.160156 C 736.042969 565.152344 732.039062 561.601562 731.257812 556.957031 L 605.867188 556.765625 L 497.867188 448.542969 L 2.695312 448.917969 L 2.707031 445.640625 L 499.238281 445.273438 L 607.222656 553.488281 L 731.265625 553.679688 C 732.066406 549.050781 736.066406 545.515625 740.933594 545.515625 C 740.941406 545.515625 740.941406 545.515625 740.949219 545.515625 C 746.378906 545.523438 750.773438 549.929688 750.757812 555.351562 C 750.757812 560.769531 746.355469 565.160156 740.925781 565.160156 "/>
<path style=" stroke:none;fill-rule:nonzero;fill:rgb(79.60968%,42.349243%,90.19928%);fill-opacity:1;" d="M 2.695312 520.496094 L 2.695312 517.222656 L 2.707031 520.496094 L 2.695312 520.496094 "/>
<path style=" stroke:none;fill-rule:nonzero;fill:rgb(0%,29.019165%,67.83905%);fill-opacity:1;" d="M 581.882812 638.15625 C 581.882812 638.15625 581.875 638.15625 581.875 638.15625 C 576.4375 638.140625 572.042969 633.734375 572.050781 628.308594 C 572.050781 626.195312 572.742188 624.238281 573.890625 622.636719 L 471.578125 520.121094 L 2.695312 520.496094 L 2.707031 517.222656 L 472.941406 516.839844 L 576.210938 620.332031 C 577.816406 619.191406 579.769531 618.503906 581.882812 618.503906 C 581.890625 618.503906 581.898438 618.503906 581.898438 618.503906 C 587.335938 618.519531 591.730469 622.921875 591.722656 628.339844 C 591.707031 633.765625 587.304688 638.15625 581.882812 638.15625 "/>
<path style=" stroke:none;fill-rule:nonzero;fill:rgb(0%,29.019165%,67.83905%);fill-opacity:1;" d="M 518.75 273.550781 C 518.75 273.550781 518.742188 273.550781 518.734375 273.550781 C 513.304688 273.542969 508.910156 269.140625 508.921875 263.714844 C 508.921875 261.589844 509.613281 259.644531 510.761719 258.039062 L 513.082031 255.726562 C 514.683594 254.59375 516.628906 253.90625 518.75 253.90625 C 518.761719 253.90625 518.761719 253.90625 518.769531 253.90625 C 520.273438 253.90625 521.679688 254.273438 522.953125 254.882812 L 620.613281 157.03125 L 763.1875 156.808594 L 813.910156 105.984375 L 931.902344 105.800781 L 945.808594 91.878906 C 943.726562 90.078125 942.386719 87.460938 942.378906 84.507812 C 942.378906 79.074219 946.773438 74.679688 952.203125 74.671875 C 952.203125 74.671875 952.210938 74.671875 952.210938 74.671875 C 957.640625 74.671875 962.042969 79.050781 962.050781 84.46875 C 962.058594 89.894531 957.664062 94.304688 952.234375 94.3125 C 950.976562 94.3125 949.789062 94.058594 948.679688 93.628906 L 933.265625 109.074219 L 815.273438 109.257812 L 764.550781 160.089844 L 621.96875 160.3125 L 525.6875 256.773438 C 527.484375 258.558594 528.59375 261.023438 528.582031 263.746094 C 528.574219 269.164062 524.175781 273.550781 518.75 273.550781 "/>
<path style=" stroke:none;fill-rule:nonzero;fill:rgb(79.60968%,42.349243%,90.19928%);fill-opacity:1;" d="M 2.695312 501.273438 L 2.695312 498.003906 L 2.707031 501.273438 L 2.695312 501.273438 "/>
<path style=" stroke:none;fill-rule:nonzero;fill:rgb(0%,29.019165%,67.83905%);fill-opacity:1;" d="M 842.402344 670.085938 C 842.402344 670.085938 842.394531 670.085938 842.386719 670.085938 C 836.957031 670.078125 832.5625 665.671875 832.570312 660.246094 L 779.445312 660.160156 L 728.722656 609.335938 L 586.148438 609.113281 L 478.148438 500.898438 L 2.695312 501.273438 L 2.707031 498.003906 L 479.511719 497.628906 L 587.503906 605.839844 L 730.085938 606.066406 L 780.808594 656.886719 L 833.175781 656.96875 C 834.539062 653.171875 838.128906 650.441406 842.394531 650.441406 C 842.402344 650.441406 842.410156 650.441406 842.417969 650.441406 C 847.847656 650.449219 852.25 654.847656 852.234375 660.269531 C 852.226562 665.695312 847.824219 670.085938 842.402344 670.085938 "/>
<path style=" stroke:none;fill-rule:nonzero;fill:rgb(0%,29.019165%,67.83905%);fill-opacity:1;" d="M 867.894531 597.695312 C 867.886719 597.695312 867.878906 597.695312 867.878906 597.695312 C 863.015625 597.6875 858.996094 594.136719 858.230469 589.492188 L 803.296875 589.414062 L 752.574219 538.582031 L 610 538.359375 L 502 430.144531 L 340.828125 430.265625 L 341.074219 430.511719 L 336.449219 430.511719 L 336.210938 430.265625 L 335.996094 430.265625 L 335.996094 430.058594 L 301.238281 395.222656 C 299.898438 395.902344 298.40625 396.316406 296.8125 396.316406 C 291.378906 396.300781 286.988281 391.898438 286.996094 386.472656 C 286.996094 384.355469 287.6875 382.402344 288.835938 380.800781 L 291.15625 378.492188 C 292.761719 377.351562 294.707031 376.664062 296.828125 376.664062 C 296.835938 376.664062 296.84375 376.664062 296.84375 376.664062 C 302.273438 376.683594 306.667969 381.085938 306.660156 386.503906 C 306.660156 389.136719 305.605469 391.515625 303.914062 393.277344 L 337.566406 426.996094 L 503.363281 426.875 L 611.363281 535.089844 L 753.9375 535.3125 L 804.660156 586.144531 L 858.230469 586.222656 C 859.019531 581.585938 863.039062 578.050781 867.902344 578.050781 C 867.902344 578.050781 867.910156 578.050781 867.910156 578.050781 C 873.339844 578.058594 877.742188 582.464844 877.726562 587.890625 C 877.71875 593.308594 873.316406 597.695312 867.894531 597.695312 "/>
<path style=" stroke:none;fill-rule:nonzero;fill:rgb(79.60968%,42.349243%,90.19928%);fill-opacity:1;" d="M 2.695312 482.46875 L 2.695312 479.191406 L 2.707031 482.46875 L 2.695312 482.46875 "/>
<g clip-path="url(#clip1)" clip-rule="nonzero">
<path style=" stroke:none;fill-rule:nonzero;fill:rgb(0%,29.019165%,67.83905%);fill-opacity:1;" d="M 925.148438 672.667969 C 925.140625 672.667969 925.132812 672.667969 925.132812 672.667969 C 919.703125 672.660156 915.300781 668.257812 915.308594 662.832031 C 915.316406 660.296875 916.3125 658.003906 917.898438 656.257812 L 903.195312 641.53125 L 785.195312 641.347656 L 734.480469 590.523438 L 591.898438 590.300781 L 483.898438 482.085938 L 2.695312 482.46875 L 2.707031 479.191406 L 485.269531 478.816406 L 593.253906 587.019531 L 735.835938 587.25 L 786.558594 638.074219 L 904.558594 638.257812 L 920.507812 654.238281 C 921.894531 653.488281 923.464844 653.019531 925.164062 653.019531 C 930.59375 653.035156 934.988281 657.4375 934.980469 662.863281 C 934.972656 668.28125 930.570312 672.667969 925.148438 672.667969 "/>
</g>
<path style=" stroke:none;fill-rule:nonzero;fill:rgb(79.60968%,42.349243%,90.19928%);fill-opacity:1;" d="M 2.695312 380.160156 L 2.707031 380.160156 L 2.707031 376.882812 L 2.695312 376.882812 Z M 2.695312 380.160156 "/>
<path style=" stroke:none;fill-rule:nonzero;fill:rgb(0%,29.019165%,67.83905%);fill-opacity:1;" d="M 145.199219 380.242188 L 2.707031 380.160156 L 2.707031 376.882812 L 143.835938 376.960938 L 192.933594 327.78125 L 410.519531 327.4375 L 451.875 361.746094 C 453.667969 359.742188 456.25 358.46875 459.144531 358.457031 C 459.144531 358.457031 459.144531 358.457031 459.152344 358.457031 C 464.578125 358.457031 468.984375 362.855469 468.992188 368.273438 C 469.003906 373.699219 464.609375 378.101562 459.179688 378.109375 C 459.171875 378.109375 459.160156 378.109375 459.160156 378.109375 C 453.730469 378.109375 449.339844 373.722656 449.332031 368.304688 C 449.332031 366.957031 449.59375 365.679688 450.078125 364.515625 L 409.347656 330.71875 L 194.289062 331.050781 L 145.199219 380.242188 "/>
<path style=" stroke:none;fill-rule:nonzero;fill:rgb(79.60968%,42.349243%,90.19928%);fill-opacity:1;" d="M 2.695312 329.265625 L 2.707031 329.265625 L 2.707031 325.984375 L 2.695312 325.984375 Z M 2.695312 329.265625 "/>
<path style=" stroke:none;fill-rule:nonzero;fill:rgb(0%,29.019165%,67.83905%);fill-opacity:1;" d="M 113.328125 369.175781 C 107.90625 369.175781 103.496094 364.785156 103.488281 359.359375 C 103.488281 356.65625 104.582031 354.199219 106.359375 352.410156 L 78.324219 329.144531 L 2.707031 329.265625 L 2.707031 325.984375 L 79.503906 325.867188 L 109.160156 350.480469 C 110.425781 349.890625 111.820312 349.53125 113.304688 349.523438 C 113.3125 349.523438 113.320312 349.523438 113.320312 349.523438 C 118.75 349.523438 123.152344 353.910156 123.160156 359.328125 C 123.167969 364.753906 118.765625 369.167969 113.34375 369.175781 C 113.335938 369.175781 113.335938 369.175781 113.328125 369.175781 "/>
<path style=" stroke:none;fill-rule:nonzero;fill:rgb(0%,29.019165%,67.83905%);fill-opacity:1;" d="M 580.414062 237.234375 C 574.984375 237.234375 570.589844 232.84375 570.582031 227.425781 C 570.566406 222 574.960938 217.597656 580.398438 217.589844 C 580.398438 217.589844 580.40625 217.589844 580.40625 217.589844 C 582.519531 217.589844 584.472656 218.277344 586.085938 219.417969 L 630.453125 174.953125 L 815.640625 174.664062 L 845.074219 145.175781 C 843.484375 143.4375 842.488281 141.148438 842.488281 138.601562 C 842.480469 133.175781 846.875 128.78125 852.304688 128.765625 C 852.304688 128.765625 852.3125 128.765625 852.320312 128.765625 C 857.742188 128.765625 862.144531 133.152344 862.152344 138.570312 C 862.160156 144.003906 857.765625 148.40625 852.335938 148.414062 C 850.636719 148.414062 849.066406 147.953125 847.679688 147.195312 L 817.003906 177.9375 L 631.816406 178.222656 L 588.398438 221.722656 C 589.554688 223.328125 590.238281 225.28125 590.246094 227.402344 C 590.253906 232.820312 585.851562 237.226562 580.429688 237.234375 C 580.421875 237.234375 580.421875 237.234375 580.414062 237.234375 "/>
<path style=" stroke:none;fill-rule:nonzero;fill:rgb(79.60968%,42.349243%,90.19928%);fill-opacity:1;" d="M 2.695312 289.546875 L 2.695312 286.277344 L 2.707031 289.546875 "/>
<path style=" stroke:none;fill-rule:nonzero;fill:rgb(0%,29.019165%,67.83905%);fill-opacity:1;" d="M 609.71875 451.71875 L 425.886719 268.660156 L 284.667969 268.882812 L 263.390625 290.195312 L 2.695312 289.546875 L 2.707031 286.277344 L 262.027344 286.921875 L 283.304688 265.613281 L 427.242188 265.382812 L 611.074219 448.449219 L 681.828125 448.335938 L 727.617188 402.453125 C 726.027344 400.714844 725.039062 398.421875 725.03125 395.886719 C 725.023438 390.460938 729.417969 386.058594 734.847656 386.046875 C 734.855469 386.046875 734.863281 386.046875 734.871094 386.046875 C 740.292969 386.046875 744.6875 390.4375 744.695312 395.855469 C 744.703125 401.273438 740.308594 405.683594 734.871094 405.691406 C 734.871094 405.691406 734.855469 405.691406 734.855469 405.691406 C 733.171875 405.691406 731.609375 405.222656 730.222656 404.480469 L 683.191406 451.609375 L 609.71875 451.71875 "/>
<path style=" stroke:none;fill-rule:nonzero;fill:rgb(79.60968%,42.349243%,90.19928%);fill-opacity:1;" d="M 2.695312 309.191406 L 2.695312 305.921875 L 2.707031 309.191406 "/>
<path style=" stroke:none;fill-rule:nonzero;fill:rgb(0%,29.019165%,67.83905%);fill-opacity:1;" d="M 609.75 471.371094 L 425.917969 288.3125 L 284.699219 288.535156 L 263.421875 309.835938 L 2.695312 309.191406 L 2.707031 305.921875 L 262.058594 306.574219 L 283.335938 285.253906 L 427.265625 285.03125 L 611.105469 468.09375 L 681.859375 467.980469 L 735.851562 413.878906 L 769.472656 413.820312 C 770.253906 409.179688 774.261719 405.628906 779.128906 405.621094 C 779.136719 405.621094 779.144531 405.621094 779.152344 405.621094 C 784.574219 405.621094 788.96875 410.007812 788.984375 415.425781 C 788.984375 420.851562 784.589844 425.253906 779.160156 425.261719 C 779.152344 425.261719 779.144531 425.261719 779.136719 425.261719 C 774.28125 425.261719 770.269531 421.730469 769.480469 417.09375 L 737.214844 417.140625 L 683.214844 471.25 L 609.75 471.371094 "/>
<path style=" stroke:none;fill-rule:nonzero;fill:rgb(79.60968%,42.349243%,90.19928%);fill-opacity:1;" d="M 2.695312 411.300781 L 2.707031 411.300781 L 2.707031 408.003906 L 2.695312 408.003906 Z M 2.695312 411.300781 "/>
<path style=" stroke:none;fill-rule:nonzero;fill:rgb(0%,29.019165%,67.83905%);fill-opacity:1;" d="M 210.40625 412.128906 L 2.707031 411.300781 L 2.707031 408.003906 L 210.039062 407.863281 L 244.007812 374.050781 C 242.859375 372.4375 242.179688 370.492188 242.179688 368.367188 C 242.1875 362.941406 246.597656 358.546875 252.019531 358.546875 C 252.027344 358.546875 252.027344 358.546875 252.027344 358.546875 C 257.460938 358.5625 261.851562 362.964844 261.84375 368.390625 C 261.835938 373.808594 257.441406 378.199219 252.019531 378.199219 C 252.011719 378.199219 252.003906 378.199219 251.996094 378.199219 C 249.875 378.199219 247.921875 377.511719 246.320312 376.363281 L 210.40625 412.128906 "/>
<path style=" stroke:none;fill-rule:nonzero;fill:rgb(0%,29.019165%,67.83905%);fill-opacity:1;" d="M 947.355469 601.507812 C 947.347656 601.507812 947.347656 601.507812 947.339844 601.507812 C 941.910156 601.5 937.507812 597.097656 937.523438 591.671875 C 937.53125 588.710938 938.871094 586.09375 940.945312 584.300781 L 927.046875 570.367188 L 809.046875 570.195312 L 758.324219 519.363281 L 615.738281 519.140625 L 507.746094 410.925781 L 388.640625 411.011719 C 387.984375 415.808594 383.917969 419.527344 378.945312 419.527344 C 378.933594 419.527344 378.925781 419.527344 378.917969 419.527344 C 376.796875 419.519531 374.84375 418.832031 373.242188 417.691406 L 370.921875 415.371094 C 369.78125 413.765625 369.09375 411.8125 369.101562 409.6875 C 369.113281 404.273438 373.511719 399.875 378.945312 399.875 C 378.945312 399.875 378.953125 399.875 378.953125 399.875 C 383.703125 399.890625 387.660156 403.265625 388.566406 407.742188 L 509.113281 407.65625 L 617.101562 515.867188 L 759.6875 516.089844 L 810.410156 566.914062 L 928.410156 567.097656 L 943.816406 582.542969 C 944.921875 582.121094 946.113281 581.867188 947.371094 581.867188 C 952.800781 581.875 957.195312 586.277344 957.1875 591.703125 C 957.179688 597.121094 952.777344 601.507812 947.355469 601.507812 "/>
<path style=" stroke:none;fill-rule:nonzero;fill:rgb(0%,29.019165%,67.83905%);fill-opacity:1;" d="M 613.0625 494.683594 L 425.941406 308.355469 L 337.964844 308.488281 C 337.191406 313.132812 333.179688 316.683594 328.308594 316.691406 C 328.300781 316.691406 328.292969 316.691406 328.285156 316.691406 C 322.863281 316.691406 318.46875 312.304688 318.460938 306.894531 C 318.453125 301.46875 322.847656 297.054688 328.277344 297.046875 C 328.277344 297.046875 328.277344 297.046875 328.285156 297.046875 C 333.148438 297.046875 337.167969 300.582031 337.957031 305.21875 L 427.296875 305.082031 L 614.417969 491.414062 L 840.855469 491.054688 L 918.570312 413.183594 C 916.496094 411.386719 915.15625 408.761719 915.148438 405.8125 C 915.140625 400.386719 919.535156 395.980469 924.964844 395.972656 C 924.972656 395.972656 924.980469 395.972656 924.980469 395.972656 C 930.402344 395.972656 934.8125 400.363281 934.820312 405.78125 C 934.820312 411.203125 930.425781 415.609375 925.003906 415.617188 C 924.988281 415.617188 924.980469 415.617188 924.972656 415.617188 C 923.726562 415.617188 922.539062 415.363281 921.449219 414.9375 L 842.226562 494.324219 L 613.0625 494.683594 "/>
<path style=" stroke:none;fill-rule:nonzero;fill:rgb(0%,29.019165%,67.83905%);fill-opacity:1;" d="M 882.679688 251.96875 C 877.257812 251.96875 872.847656 247.574219 872.839844 242.164062 C 872.839844 239.625 873.828125 237.328125 875.40625 235.582031 L 837.679688 198.019531 L 650.960938 198.304688 C 650.125 202.871094 646.160156 206.339844 641.351562 206.347656 C 641.34375 206.347656 641.34375 206.347656 641.34375 206.347656 C 635.914062 206.347656 631.511719 201.960938 631.496094 196.542969 C 631.496094 191.117188 635.890625 186.710938 641.320312 186.703125 C 641.328125 186.703125 641.335938 186.703125 641.34375 186.703125 C 646.199219 186.703125 650.210938 190.238281 651 194.875 L 651 195.035156 L 839.027344 194.738281 L 878.003906 233.554688 C 879.402344 232.796875 880.964844 232.324219 882.664062 232.324219 C 882.664062 232.324219 882.664062 232.324219 882.671875 232.324219 C 888.09375 232.324219 892.503906 236.714844 892.503906 242.132812 C 892.519531 247.558594 888.117188 251.960938 882.6875 251.96875 C 882.6875 251.96875 882.679688 251.96875 882.679688 251.96875 "/>
<path style=" stroke:none;fill-rule:nonzero;fill:rgb(0%,29.019165%,67.83905%);fill-opacity:1;" d="M 185.699219 395.871094 C 180.277344 395.871094 175.878906 391.488281 175.867188 386.066406 C 175.859375 380.640625 180.253906 376.234375 185.683594 376.226562 C 185.691406 376.226562 185.699219 376.226562 185.699219 376.226562 C 187.597656 376.226562 189.351562 376.785156 190.851562 377.71875 L 222.605469 345.910156 L 389.492188 345.652344 L 410.296875 362.902344 C 411.925781 361.691406 413.925781 360.941406 416.117188 360.933594 C 416.117188 360.933594 416.125 360.933594 416.132812 360.933594 C 421.554688 360.933594 425.957031 365.320312 425.964844 370.746094 C 425.964844 372.988281 425.183594 375.039062 423.917969 376.691406 L 423.039062 377.742188 C 421.269531 379.492188 418.835938 380.574219 416.148438 380.582031 C 416.140625 380.582031 416.132812 380.582031 416.132812 380.582031 C 411.269531 380.582031 407.25 377.050781 406.46875 372.414062 L 406.460938 369.132812 C 406.699219 367.722656 407.265625 366.429688 408.03125 365.289062 L 388.3125 348.925781 L 223.960938 349.179688 L 193.316406 379.898438 C 194.679688 381.582031 195.53125 383.695312 195.53125 386.03125 C 195.539062 391.457031 191.148438 395.863281 185.71875 395.871094 C 185.707031 395.871094 185.707031 395.871094 185.699219 395.871094 "/>
<path style=" stroke:none;fill-rule:nonzero;fill:rgb(100%,100%,100%);fill-opacity:1;" d="M 1163.402344 473.597656 C 1163.386719 468.171875 1167.789062 463.769531 1173.21875 463.757812 C 1178.082031 463.75 1182.101562 467.285156 1182.898438 471.929688 L 1227.285156 471.859375 L 1227.285156 475.128906 L 1182.90625 475.199219 C 1182.132812 479.84375 1178.125 483.394531 1173.25 483.402344 C 1167.820312 483.410156 1163.410156 479.023438 1163.402344 473.597656 "/>
<path style=" stroke:none;fill-rule:nonzero;fill:rgb(100%,100%,100%);fill-opacity:1;" d="M 1051.847656 507.746094 C 1051.074219 512.382812 1047.0625 515.9375 1042.199219 515.949219 C 1036.769531 515.949219 1032.351562 511.558594 1032.34375 506.132812 C 1032.335938 500.707031 1036.734375 496.304688 1042.160156 496.296875 C 1047.039062 496.289062 1051.058594 499.832031 1051.847656 504.464844 L 1105.410156 504.386719 L 1156.140625 453.554688 L 1227.285156 453.445312 L 1227.285156 456.714844 L 1157.503906 456.828125 L 1106.78125 507.65625 L 1051.847656 507.746094 "/>
<path style=" stroke:none;fill-rule:nonzero;fill:rgb(100%,100%,100%);fill-opacity:1;" d="M 1061.617188 563.851562 C 1061.605469 558.425781 1066 554.019531 1071.429688 554.019531 C 1075.707031 554.003906 1079.308594 556.742188 1080.671875 560.546875 L 1133.039062 560.46875 L 1183.761719 509.644531 L 1227.285156 509.574219 L 1227.285156 512.84375 L 1185.132812 512.914062 L 1134.402344 563.738281 L 1081.277344 563.828125 C 1081.289062 569.253906 1076.894531 573.648438 1071.464844 573.65625 C 1066.03125 573.671875 1061.625 569.277344 1061.617188 563.851562 "/>
<path style=" stroke:none;fill-rule:nonzero;fill:rgb(100%,100%,100%);fill-opacity:1;" d="M 974.777344 566.4375 C 974.769531 561.019531 979.171875 556.605469 984.601562 556.597656 C 986.292969 556.597656 987.863281 557.0625 989.25 557.820312 L 1005.199219 541.835938 L 1123.199219 541.644531 L 1173.921875 490.824219 L 1227.285156 490.742188 L 1227.285156 494.015625 L 1175.285156 494.101562 L 1124.570312 544.925781 L 1006.570312 545.109375 L 991.859375 559.835938 C 993.445312 561.578125 994.441406 563.867188 994.449219 566.410156 C 994.457031 571.835938 990.0625 576.242188 984.632812 576.25 C 979.203125 576.257812 974.785156 571.859375 974.777344 566.4375 "/>
<path style=" stroke:none;fill-rule:nonzero;fill:rgb(100%,100%,100%);fill-opacity:1;" d="M 916.121094 278.171875 L 790.722656 278.363281 C 789.949219 283.003906 785.9375 286.554688 781.074219 286.5625 C 775.636719 286.570312 771.226562 282.183594 771.226562 276.757812 C 771.21875 271.332031 775.609375 266.929688 781.042969 266.921875 C 785.90625 266.914062 789.925781 270.449219 790.722656 275.089844 L 914.757812 274.890625 L 1022.75 166.679688 L 1227.292969 166.832031 L 1227.292969 170.109375 L 1024.113281 169.957031 L 916.121094 278.171875 "/>
<path style=" stroke:none;fill-rule:nonzero;fill:rgb(100%,100%,100%);fill-opacity:1;" d="M 907.898438 259.765625 L 765.324219 259.988281 L 714.59375 310.820312 L 659.667969 310.90625 C 658.894531 315.542969 654.882812 319.101562 650.011719 319.109375 C 644.589844 319.117188 640.171875 314.71875 640.164062 309.296875 C 640.15625 303.871094 644.558594 299.464844 649.988281 299.457031 C 654.851562 299.449219 658.871094 302.992188 659.667969 307.628906 L 713.230469 307.546875 L 763.960938 256.714844 L 906.535156 256.492188 L 1014.527344 148.289062 L 1227.292969 148.433594 L 1227.292969 151.703125 L 1015.890625 151.558594 L 907.898438 259.765625 "/>
<path style=" stroke:none;fill-rule:nonzero;fill:rgb(100%,100%,100%);fill-opacity:1;" d="M 931.996094 335.082031 C 931.988281 329.664062 936.382812 325.253906 941.8125 325.246094 C 943.941406 325.246094 945.886719 325.929688 947.5 327.0625 L 1050.777344 223.582031 L 1227.292969 223.726562 L 1227.292969 226.996094 L 1052.140625 226.851562 L 949.820312 329.378906 C 950.96875 330.980469 951.660156 332.925781 951.667969 335.050781 C 951.667969 340.476562 947.277344 344.878906 941.84375 344.886719 C 936.414062 344.894531 932.003906 340.507812 931.996094 335.082031 "/>
<path style=" stroke:none;fill-rule:nonzero;fill:rgb(100%,100%,100%);fill-opacity:1;" d="M 935.523438 315.851562 L 792.945312 316.078125 L 742.222656 366.898438 L 689.101562 366.980469 C 689.109375 372.414062 684.714844 376.808594 679.285156 376.816406 C 673.855469 376.832031 669.445312 372.4375 669.4375 367.011719 C 669.429688 361.585938 673.824219 357.183594 679.253906 357.175781 C 683.527344 357.167969 687.132812 359.902344 688.496094 363.707031 L 740.859375 363.628906 L 791.582031 312.804688 L 934.167969 312.582031 L 1042.160156 204.371094 L 1227.292969 204.511719 L 1227.292969 207.785156 L 1043.523438 207.640625 L 935.523438 315.851562 "/>
<path style=" stroke:none;fill-rule:nonzero;fill:rgb(100%,100%,100%);fill-opacity:1;" d="M 925.683594 297.03125 L 783.105469 297.261719 L 732.382812 348.085938 L 614.390625 348.269531 L 599.679688 363 C 601.273438 364.738281 602.265625 367.035156 602.273438 369.574219 C 602.28125 375 597.886719 379.402344 592.449219 379.410156 C 587.015625 379.417969 582.609375 375.023438 582.601562 369.597656 C 582.59375 364.171875 586.984375 359.773438 592.414062 359.757812 C 594.113281 359.757812 595.683594 360.230469 597.074219 360.980469 L 613.027344 345 L 731.019531 344.808594 L 781.742188 293.984375 L 924.328125 293.761719 L 1032.320312 185.554688 L 1227.292969 185.707031 L 1227.292969 188.980469 L 1033.683594 188.820312 L 925.683594 297.03125 "/>
<path style=" stroke:none;fill-rule:nonzero;fill:rgb(100%,100%,100%);fill-opacity:1;" d="M 864.019531 356.726562 L 823.28125 390.523438 C 823.765625 391.691406 824.039062 392.964844 824.03125 394.304688 C 824.019531 399.730469 819.621094 404.128906 814.179688 404.121094 C 808.75 404.113281 804.355469 399.707031 804.367188 394.28125 C 804.375 388.855469 808.78125 384.46875 814.214844 384.46875 C 817.117188 384.476562 819.691406 385.753906 821.484375 387.75 L 862.832031 353.449219 L 1080.433594 353.785156 L 1129.523438 402.972656 L 1227.292969 402.914062 L 1227.292969 406.195312 L 1128.160156 406.25 L 1079.070312 357.0625 L 864.019531 356.726562 "/>
<path style=" stroke:none;fill-rule:nonzero;fill:rgb(100%,100%,100%);fill-opacity:1;" d="M 1021.363281 404.207031 C 1015.933594 404.214844 1011.523438 399.828125 1011.515625 394.402344 C 1011.507812 388.976562 1015.898438 384.574219 1021.332031 384.558594 C 1026.761719 384.558594 1031.171875 388.953125 1031.179688 394.371094 C 1031.179688 396.492188 1030.5 398.449219 1029.359375 400.050781 L 1063.320312 433.871094 L 1227.292969 433.984375 L 1227.292969 437.476562 L 1062.953125 438.132812 L 1027.039062 402.371094 C 1025.4375 403.515625 1023.484375 404.199219 1021.363281 404.207031 "/>
<path style=" stroke:none;fill-rule:nonzero;fill:rgb(100%,100%,100%);fill-opacity:1;" d="M 1077.828125 412.042969 C 1077.835938 409.707031 1078.679688 407.582031 1080.050781 405.898438 L 1049.390625 375.191406 L 885.046875 374.933594 L 865.328125 391.289062 C 866.09375 392.441406 866.660156 393.722656 866.898438 395.144531 L 866.890625 398.414062 C 866.101562 403.058594 862.082031 406.59375 857.210938 406.585938 C 854.523438 406.585938 852.089844 405.492188 850.320312 403.746094 L 849.441406 402.699219 C 848.175781 401.039062 847.394531 398.996094 847.394531 396.746094 C 847.402344 391.324219 851.8125 386.933594 857.242188 386.941406 C 859.441406 386.941406 861.433594 387.699219 863.0625 388.914062 L 883.867188 371.65625 L 1050.753906 371.917969 L 1082.507812 403.722656 C 1084.007812 402.789062 1085.777344 402.230469 1087.675781 402.230469 C 1093.105469 402.238281 1097.5 406.648438 1097.492188 412.066406 C 1097.480469 417.5 1093.074219 421.878906 1087.640625 421.871094 C 1082.210938 421.863281 1077.820312 417.46875 1077.828125 412.042969 "/>
<path style=" stroke:none;fill-rule:nonzero;fill:rgb(100%,100%,100%);fill-opacity:1;" d="M 197.152344 262.183594 C 197.160156 267.605469 192.757812 272.011719 187.328125 272.019531 C 182.464844 272.027344 178.4375 268.484375 177.65625 263.847656 L 2.695312 264.121094 L 2.695312 260.847656 L 177.648438 260.570312 C 178.421875 255.925781 182.433594 252.382812 187.304688 252.375 C 192.726562 252.367188 197.144531 256.757812 197.152344 262.183594 "/>
<path style=" stroke:none;fill-rule:nonzero;fill:rgb(100%,100%,100%);fill-opacity:1;" d="M 606.640625 113.285156 L 732.03125 113.09375 C 732.804688 108.453125 736.816406 104.902344 741.679688 104.894531 C 747.121094 104.886719 751.53125 109.273438 751.53125 114.699219 C 751.546875 120.125 747.152344 124.527344 741.722656 124.535156 C 736.847656 124.542969 732.832031 121.007812 732.039062 116.367188 L 607.996094 116.558594 L 500.003906 224.769531 L 2.695312 224.402344 L 2.695312 221.132812 L 498.640625 221.5 L 606.640625 113.285156 "/>
<path style=" stroke:none;fill-rule:nonzero;fill:rgb(100%,100%,100%);fill-opacity:1;" d="M 614.863281 131.691406 L 757.4375 131.46875 L 808.160156 80.636719 L 863.085938 80.550781 C 863.859375 75.914062 867.871094 72.355469 872.742188 72.347656 C 878.171875 72.339844 882.582031 76.738281 882.589844 82.160156 C 882.597656 87.578125 878.203125 91.992188 872.773438 92 C 867.902344 92 863.882812 88.464844 863.085938 83.820312 L 809.523438 83.910156 L 758.792969 134.742188 L 616.21875 134.957031 L 508.226562 243.167969 L 2.695312 242.816406 L 2.695312 239.539062 L 506.863281 239.898438 L 614.863281 131.691406 "/>
<path style=" stroke:none;fill-rule:nonzero;fill:rgb(100%,100%,100%);fill-opacity:1;" d="M 590.757812 56.375 C 590.765625 61.792969 586.371094 66.195312 580.941406 66.210938 C 578.820312 66.210938 576.867188 65.527344 575.253906 64.386719 L 471.984375 167.875 L 2.695312 167.492188 L 2.695312 164.222656 L 470.621094 164.597656 L 572.933594 62.078125 C 571.789062 60.476562 571.09375 58.523438 571.09375 56.40625 C 571.085938 50.980469 575.480469 46.578125 580.910156 46.5625 C 586.339844 46.554688 590.75 50.949219 590.757812 56.375 "/>
<path style=" stroke:none;fill-rule:nonzero;fill:rgb(100%,100%,100%);fill-opacity:1;" d="M 853.316406 24.445312 C 853.332031 29.871094 848.933594 34.265625 843.5 34.273438 C 839.226562 34.289062 835.625 31.554688 834.269531 27.75 L 781.894531 27.828125 L 731.171875 78.652344 L 588.589844 78.875 L 480.605469 187.085938 L 2.695312 186.710938 L 2.695312 183.441406 L 479.234375 183.816406 L 587.234375 75.605469 L 729.808594 75.378906 L 780.539062 24.558594 L 833.652344 24.46875 C 833.644531 19.042969 838.039062 14.640625 843.46875 14.632812 C 848.898438 14.625 853.316406 19.019531 853.316406 24.445312 "/>
<g clip-path="url(#clip2)" clip-rule="nonzero">
<path style=" stroke:none;fill-rule:nonzero;fill:rgb(100%,100%,100%);fill-opacity:1;" d="M 597.074219 94.417969 L 739.648438 94.195312 L 790.371094 43.371094 L 908.371094 43.1875 L 923.074219 28.457031 C 921.488281 26.710938 920.492188 24.421875 920.492188 21.882812 C 920.484375 16.457031 924.875 12.054688 930.308594 12.046875 C 935.738281 12.039062 940.148438 16.425781 940.15625 21.851562 C 940.164062 27.277344 935.769531 31.683594 930.332031 31.699219 C 928.640625 31.699219 927.070312 31.226562 925.683594 30.476562 L 909.734375 46.457031 L 791.742188 46.640625 L 741.011719 97.464844 L 598.429688 97.695312 L 490.445312 205.902344 L 2.695312 205.527344 L 2.695312 202.246094 L 489.074219 202.628906 L 597.074219 94.417969 "/>
</g>
<path style=" stroke:none;fill-rule:nonzero;fill:rgb(100%,100%,100%);fill-opacity:1;" d="M 742.414062 563.945312 L 796.414062 618.058594 L 976.164062 618.335938 C 976.964844 613.699219 980.980469 610.15625 985.847656 610.164062 C 991.277344 610.175781 995.679688 614.578125 995.671875 620.003906 C 995.664062 625.429688 991.253906 629.816406 985.820312 629.808594 C 980.949219 629.800781 976.9375 626.257812 976.164062 621.613281 L 795.050781 621.328125 L 741.050781 567.226562 L 598.476562 566.992188 L 490.484375 458.789062 L 2.695312 459.15625 L 2.695312 455.886719 L 491.839844 455.519531 L 599.839844 563.722656 L 742.414062 563.945312 "/>
<path style=" stroke:none;fill-rule:nonzero;fill:rgb(100%,100%,100%);fill-opacity:1;" d="M 731.265625 547.550781 C 732.066406 542.914062 736.074219 539.378906 740.949219 539.386719 C 746.378906 539.394531 750.773438 543.800781 750.765625 549.226562 C 750.757812 554.644531 746.347656 559.039062 740.90625 559.03125 C 736.042969 559.023438 732.039062 555.472656 731.257812 550.828125 L 605.867188 550.636719 L 497.867188 442.417969 L 2.695312 442.792969 L 2.695312 439.511719 L 499.238281 439.144531 L 607.222656 547.359375 L 731.265625 547.550781 "/>
<path style=" stroke:none;fill-rule:nonzero;fill:rgb(100%,100%,100%);fill-opacity:1;" d="M 581.898438 612.375 C 587.335938 612.390625 591.730469 616.796875 591.722656 622.214844 C 591.707031 627.640625 587.296875 632.035156 581.875 632.027344 C 576.4375 632.011719 572.042969 627.605469 572.050781 622.183594 C 572.050781 620.066406 572.742188 618.113281 573.890625 616.507812 L 471.578125 513.992188 L 2.695312 514.367188 L 2.695312 511.097656 L 472.941406 510.714844 L 576.210938 614.203125 C 577.824219 613.0625 579.777344 612.375 581.898438 612.375 "/>
<path style=" stroke:none;fill-rule:nonzero;fill:rgb(100%,100%,100%);fill-opacity:1;" d="M 620.613281 150.90625 L 763.1875 150.683594 L 813.910156 99.859375 L 931.902344 99.675781 L 945.808594 85.753906 C 943.726562 83.949219 942.386719 81.332031 942.378906 78.378906 C 942.378906 72.953125 946.773438 68.550781 952.203125 68.542969 C 957.632812 68.535156 962.042969 72.921875 962.050781 78.339844 C 962.058594 83.765625 957.664062 88.179688 952.234375 88.1875 C 950.976562 88.1875 949.789062 87.929688 948.679688 87.5 L 933.265625 102.945312 L 815.273438 103.128906 L 764.550781 153.960938 L 621.96875 154.183594 L 525.6875 250.652344 C 527.484375 252.433594 528.59375 254.898438 528.582031 257.617188 C 528.574219 263.042969 524.167969 267.433594 518.734375 267.421875 C 513.304688 267.414062 508.910156 263.011719 508.921875 257.585938 C 508.921875 255.464844 509.613281 253.515625 510.761719 251.914062 L 513.082031 249.601562 C 514.691406 248.457031 516.648438 247.773438 518.769531 247.78125 C 520.273438 247.78125 521.679688 248.148438 522.953125 248.753906 L 620.613281 150.90625 "/>
<path style=" stroke:none;fill-rule:nonzero;fill:rgb(100%,100%,100%);fill-opacity:1;" d="M 730.085938 599.9375 L 780.808594 650.761719 L 833.175781 650.839844 C 834.539062 647.035156 838.144531 644.296875 842.417969 644.3125 C 847.847656 644.320312 852.25 648.71875 852.234375 654.144531 C 852.226562 659.570312 847.816406 663.964844 842.386719 663.957031 C 836.957031 663.949219 832.5625 659.546875 832.570312 654.121094 L 779.445312 654.03125 L 728.722656 603.207031 L 586.148438 602.984375 L 478.148438 494.773438 L 2.695312 495.148438 L 2.695312 491.875 L 479.511719 491.5 L 587.503906 599.714844 L 730.085938 599.9375 "/>
<path style=" stroke:none;fill-rule:nonzero;fill:rgb(100%,100%,100%);fill-opacity:1;" d="M 296.8125 390.191406 C 291.378906 390.171875 286.988281 385.769531 286.996094 380.34375 C 286.996094 378.230469 287.6875 376.273438 288.835938 374.671875 L 291.15625 372.367188 C 292.769531 371.222656 294.722656 370.539062 296.84375 370.539062 C 302.273438 370.554688 306.667969 374.957031 306.660156 380.375 C 306.660156 383.007812 305.605469 385.386719 303.914062 387.148438 L 337.566406 420.867188 L 503.363281 420.746094 L 611.363281 528.960938 L 753.9375 529.183594 L 804.660156 580.015625 L 858.230469 580.09375 C 859.019531 575.460938 863.039062 571.917969 867.910156 571.925781 C 873.339844 571.933594 877.742188 576.335938 877.726562 581.761719 C 877.71875 587.1875 873.308594 591.574219 867.878906 591.566406 C 863.015625 591.558594 858.996094 588.007812 858.230469 583.367188 L 803.296875 583.285156 L 752.574219 532.453125 L 610 532.230469 L 502 424.019531 L 340.828125 424.136719 L 341.074219 424.386719 L 336.449219 424.386719 L 336.210938 424.136719 L 335.996094 424.136719 L 335.996094 423.929688 L 301.238281 389.097656 C 299.898438 389.773438 298.40625 390.191406 296.8125 390.191406 "/>
<path style=" stroke:none;fill-rule:nonzero;fill:rgb(100%,100%,100%);fill-opacity:1;" d="M 735.835938 581.125 L 786.558594 631.949219 L 904.558594 632.132812 L 920.507812 648.113281 C 921.894531 647.363281 923.464844 646.890625 925.164062 646.890625 C 930.59375 646.90625 934.988281 651.3125 934.980469 656.738281 C 934.972656 662.164062 930.5625 666.550781 925.132812 666.542969 C 919.703125 666.535156 915.300781 662.128906 915.308594 656.703125 C 915.316406 654.167969 916.3125 651.878906 917.898438 650.128906 L 903.195312 635.402344 L 785.195312 635.21875 L 734.480469 584.394531 L 591.898438 584.171875 L 483.898438 475.957031 L 2.695312 476.34375 L 2.695312 473.0625 L 485.269531 472.6875 L 593.253906 580.894531 L 735.835938 581.125 "/>
<path style=" stroke:none;fill-rule:nonzero;fill:rgb(100%,100%,100%);fill-opacity:1;" d="M 192.933594 321.652344 L 410.519531 321.3125 L 451.875 355.617188 C 453.667969 353.625 456.25 352.339844 459.144531 352.339844 C 464.578125 352.332031 468.984375 356.726562 468.992188 362.144531 C 469.003906 367.570312 464.609375 371.972656 459.179688 371.984375 C 453.738281 371.992188 449.339844 367.601562 449.332031 362.175781 C 449.332031 360.828125 449.59375 359.550781 450.078125 358.386719 L 409.347656 324.589844 L 194.289062 324.925781 L 145.199219 374.113281 L 2.695312 374.03125 L 2.695312 370.753906 L 143.835938 370.832031 L 192.933594 321.652344 "/>
<path style=" stroke:none;fill-rule:nonzero;fill:rgb(100%,100%,100%);fill-opacity:1;" d="M 113.304688 343.394531 C 118.742188 343.386719 123.152344 347.785156 123.160156 353.199219 C 123.167969 358.625 118.765625 363.039062 113.34375 363.039062 C 107.914062 363.046875 103.496094 358.660156 103.488281 353.234375 C 103.488281 350.527344 104.582031 348.070312 106.359375 346.285156 L 78.324219 323.019531 L 2.695312 323.136719 L 2.695312 319.859375 L 79.503906 319.738281 L 109.160156 344.351562 C 110.425781 343.761719 111.820312 343.402344 113.304688 343.394531 "/>
<path style=" stroke:none;fill-rule:nonzero;fill:rgb(100%,100%,100%);fill-opacity:1;" d="M 817.003906 171.808594 L 631.816406 172.097656 L 588.398438 215.59375 C 589.554688 217.199219 590.238281 219.152344 590.246094 221.277344 C 590.253906 226.691406 585.851562 231.097656 580.429688 231.105469 C 575 231.113281 570.589844 226.726562 570.582031 221.300781 C 570.566406 215.875 574.960938 211.46875 580.398438 211.460938 C 582.519531 211.460938 584.472656 212.148438 586.085938 213.289062 L 630.453125 168.824219 L 815.640625 168.539062 L 845.074219 139.050781 C 843.484375 137.308594 842.488281 135.019531 842.488281 132.476562 C 842.480469 127.050781 846.875 122.652344 852.304688 122.636719 C 857.734375 122.628906 862.144531 127.023438 862.152344 132.441406 C 862.160156 137.875 857.765625 142.28125 852.335938 142.289062 C 850.636719 142.289062 849.066406 141.824219 847.679688 141.066406 L 817.003906 171.808594 "/>
<path style=" stroke:none;fill-rule:nonzero;fill:rgb(100%,100%,100%);fill-opacity:1;" d="M 283.304688 259.484375 L 427.242188 259.253906 L 611.074219 442.320312 L 681.828125 442.210938 L 727.617188 396.324219 C 726.027344 394.585938 725.039062 392.296875 725.03125 389.757812 C 725.023438 384.332031 729.417969 379.929688 734.847656 379.921875 C 740.277344 379.90625 744.6875 384.300781 744.695312 389.726562 C 744.703125 395.144531 740.308594 399.554688 734.871094 399.5625 C 733.179688 399.5625 731.617188 399.101562 730.222656 398.351562 L 683.191406 445.480469 L 609.71875 445.59375 L 425.886719 262.53125 L 284.667969 262.757812 L 263.390625 284.066406 L 2.695312 283.421875 L 2.695312 280.148438 L 262.027344 280.796875 L 283.304688 259.484375 "/>
<path style=" stroke:none;fill-rule:nonzero;fill:rgb(100%,100%,100%);fill-opacity:1;" d="M 283.335938 279.128906 L 427.265625 278.90625 L 611.105469 461.964844 L 681.859375 461.851562 L 735.851562 407.75 L 769.472656 407.695312 C 770.253906 403.050781 774.261719 399.5 779.128906 399.492188 C 784.566406 399.484375 788.96875 403.871094 788.984375 409.296875 C 788.984375 414.722656 784.589844 419.128906 779.160156 419.136719 C 774.289062 419.152344 770.269531 415.609375 769.480469 410.964844 L 737.214844 411.011719 L 683.214844 465.125 L 609.75 465.242188 L 425.917969 282.183594 L 284.699219 282.398438 L 263.421875 303.71875 L 2.695312 303.0625 L 2.695312 299.792969 L 262.058594 300.445312 L 283.335938 279.128906 "/>
<path style=" stroke:none;fill-rule:nonzero;fill:rgb(100%,100%,100%);fill-opacity:1;" d="M 242.179688 362.242188 C 242.1875 356.816406 246.597656 352.417969 252.027344 352.425781 C 257.460938 352.433594 261.851562 356.839844 261.84375 362.265625 C 261.835938 367.691406 257.425781 372.085938 251.996094 372.070312 C 249.875 372.070312 247.921875 371.382812 246.320312 370.234375 L 210.40625 406.003906 L 2.695312 405.171875 L 2.695312 401.878906 L 210.039062 401.734375 L 244.007812 367.921875 C 242.859375 366.308594 242.179688 364.363281 242.179688 362.242188 "/>
<path style=" stroke:none;fill-rule:nonzero;fill:rgb(100%,100%,100%);fill-opacity:1;" d="M 937.523438 585.542969 C 937.53125 582.585938 938.871094 579.96875 940.945312 578.171875 L 927.046875 564.242188 L 809.046875 564.066406 L 758.324219 513.234375 L 615.738281 513.011719 L 507.746094 404.796875 L 388.640625 404.886719 C 387.984375 409.6875 383.902344 413.40625 378.917969 413.398438 C 376.796875 413.390625 374.84375 412.703125 373.242188 411.5625 L 370.921875 409.242188 C 369.78125 407.636719 369.09375 405.683594 369.101562 403.5625 C 369.113281 398.144531 373.519531 393.746094 378.953125 393.746094 C 383.703125 393.765625 387.660156 397.140625 388.566406 401.613281 L 509.113281 401.527344 L 617.101562 509.738281 L 759.6875 509.964844 L 810.410156 560.785156 L 928.410156 560.96875 L 943.816406 576.417969 C 944.921875 575.992188 946.113281 575.738281 947.371094 575.738281 C 952.800781 575.746094 957.195312 580.152344 957.1875 585.574219 C 957.179688 591 952.769531 595.390625 947.339844 595.382812 C 941.910156 595.375 937.507812 590.96875 937.523438 585.542969 "/>
<path style=" stroke:none;fill-rule:nonzero;fill:rgb(100%,100%,100%);fill-opacity:1;" d="M 328.277344 290.921875 C 333.140625 290.914062 337.167969 294.453125 337.957031 299.089844 L 427.296875 298.953125 L 614.417969 485.285156 L 840.855469 484.925781 L 918.570312 407.054688 C 916.496094 405.261719 915.15625 402.636719 915.148438 399.683594 C 915.140625 394.257812 919.535156 389.855469 924.964844 389.847656 C 930.394531 389.839844 934.8125 394.234375 934.820312 399.652344 C 934.828125 405.078125 930.425781 409.480469 925.003906 409.488281 C 923.746094 409.496094 922.546875 409.242188 921.449219 408.8125 L 842.226562 488.199219 L 613.0625 488.558594 L 425.941406 302.226562 L 337.964844 302.363281 C 337.191406 307.003906 333.179688 310.554688 328.308594 310.5625 C 322.878906 310.578125 318.46875 306.183594 318.460938 300.765625 C 318.453125 295.339844 322.847656 290.929688 328.277344 290.921875 "/>
<path style=" stroke:none;fill-rule:nonzero;fill:rgb(100%,100%,100%);fill-opacity:1;" d="M 892.503906 236.003906 C 892.519531 241.429688 888.117188 245.832031 882.6875 245.839844 C 877.257812 245.851562 872.847656 241.453125 872.839844 236.035156 C 872.839844 233.5 873.828125 231.199219 875.40625 229.453125 L 837.679688 191.890625 L 650.960938 192.179688 C 650.125 196.742188 646.160156 200.210938 641.351562 200.21875 C 635.921875 200.226562 631.511719 195.839844 631.496094 190.414062 C 631.496094 184.988281 635.890625 180.585938 641.320312 180.578125 C 646.191406 180.570312 650.210938 184.105469 651 188.746094 L 651 188.90625 L 839.027344 188.613281 L 878.003906 227.425781 C 879.402344 226.667969 880.964844 226.199219 882.664062 226.199219 C 888.09375 226.191406 892.503906 230.578125 892.503906 236.003906 "/>
<path style=" stroke:none;fill-rule:nonzero;fill:rgb(100%,100%,100%);fill-opacity:1;" d="M 185.683594 370.101562 C 187.589844 370.089844 189.351562 370.65625 190.851562 371.589844 L 222.605469 339.78125 L 389.492188 339.527344 L 410.296875 356.777344 C 411.925781 355.5625 413.925781 354.8125 416.117188 354.804688 C 421.546875 354.796875 425.957031 359.191406 425.964844 364.617188 C 425.964844 366.859375 425.183594 368.910156 423.917969 370.5625 L 423.039062 371.617188 C 421.269531 373.363281 418.835938 374.449219 416.148438 374.457031 C 411.277344 374.464844 407.25 370.921875 406.46875 366.277344 L 406.460938 363.007812 C 406.699219 361.59375 407.265625 360.300781 408.03125 359.160156 L 388.3125 342.796875 L 223.960938 343.050781 L 193.316406 373.769531 C 194.679688 375.453125 195.53125 377.566406 195.53125 379.90625 C 195.539062 385.332031 191.148438 389.734375 185.71875 389.742188 C 180.285156 389.75 175.878906 385.363281 175.867188 379.9375 C 175.859375 374.511719 180.253906 370.109375 185.683594 370.101562 "/>
</g>
</svg>
